<svg class="shadow" xmlns="http://www.w3.org/2000/svg" viewBox="0 0 579.48 206.82"><defs class="shadow"><style>.cls-1{fill:#e0e0e0;}.cls-2,.cls-4,.cls-5{fill:none;stroke-miterlimit:10;}.cls-2{stroke:#e0e0e0;}.cls-2,.cls-4{stroke-width:9px;}.cls-3{fill:#ff6d00;}.cls-4,.cls-5{stroke:#ff6d00;}.cls-5{stroke-width:7px;}</style></defs><title>willcar final fix</title><g id="Слой_1" data-name="Слой 1"><path class="cls-1" d="M152.75,314.94l-37.62-65.15c-.37-.65.11-1.62,1.06-2.17l4.47-2.58c1-.55,2-.48,2.4.17l40,69.3c.37.65-.11,1.61-1.06,2.17l-4.47,2.58c-1,.55-2,.47-2.4-.17l-2.4-4.15" transform="translate(-115.01 -169.54)"/><path class="cls-1" d="M291.41,243h5.34a1.91,1.91,0,0,1,1.91,1.91V321.4a2,2,0,0,1-2,2h-5.22a1.91,1.91,0,0,1-1.91-1.91V244.94a1.91,1.91,0,0,1,1.91-1.91Z" transform="translate(292.13 506) rotate(-150)"/><path class="cls-2" d="M158.68,314.71c5.54-34.56,44.08-58.68,77.76-46.14,19.24,7.72,35.73,24.88,38.74,45.86" transform="translate(-115.01 -169.54)"/><path class="cls-1" d="M311.75,246.88H317a2,2,0,0,1,2,2v69.79a1,1,0,0,1-1,1h-6.2a2,2,0,0,1-2-2V248.84a2,2,0,0,1,2-2Z" transform="translate(513.74 396.97) rotate(180)"/><path class="cls-3" d="M631.13,303h5.25a2,2,0,0,1,2,2v69.79a1,1,0,0,1-1,1h-6.2a2,2,0,0,1-2-2V305a2,2,0,0,1,2-2Z" transform="translate(1152.5 509.25) rotate(180)"/><path class="cls-3" d="M650.28,303.11h5.25a2,2,0,0,1,2,2v69.79a1,1,0,0,1-1,1h-6.2a2,2,0,0,1-2-2V305.06a2,2,0,0,1,2-2Z" transform="translate(1190.8 509.42) rotate(180)"/><path class="cls-4" d="M217.6,371.8a44.11,44.11,0,1,1,0-88.22" transform="translate(-115.01 -169.54)"/><path class="cls-2" d="M559,371.85a47.77,47.77,0,0,1,0-95.53" transform="translate(-115.01 -169.54)"/><path class="cls-4" d="M217.23,283.64a44.11,44.11,0,0,1,0,88.22" transform="translate(-115.01 -169.54)"/><path class="cls-4" d="M653,325.62a18.52,18.52,0,1,1,37-.09" transform="translate(-115.01 -169.54)"/></g><g id="Слой_2" data-name="Слой 2"><path class="cls-3" d="M339.76,351.11l-.57-136.38a2.26,2.26,0,0,1,2-2.45l5.16,0a2.27,2.27,0,0,1,2,2.43L349,359.75a2.26,2.26,0,0,1-2,2.45l-5.16,0a2.25,2.25,0,0,1-2-2.43l0-8.68" transform="translate(-115.01 -169.54)"/><path class="cls-3" d="M371.79,305.21h8.37a0,0,0,0,1,0,0v69.05a1.9,1.9,0,0,1-1.9,1.9H373a1.92,1.92,0,0,1-1.92-1.92V306A.74.74,0,0,1,371.79,305.21Z" transform="translate(152.22 666.58) rotate(-119.87)"/><path class="cls-3" d="M416.8,308.67,416.23,172a2.25,2.25,0,0,1,2-2.44l5.16,0a2.27,2.27,0,0,1,2,2.44L426,317.33a2.26,2.26,0,0,1-2,2.45l-5.16,0a2.24,2.24,0,0,1-2-2.43l0-8.7" transform="translate(-115.01 -169.54)"/><path class="cls-3" d="M455.88,278.85h9a.1.1,0,0,1,.1.1v70.61a2,2,0,0,1-2,2h-5.08a2,2,0,0,1-2-2v-70.6a.1.1,0,0,1,.1-.1Z" transform="translate(30.14 606.04) rotate(-90)"/><circle class="cls-5" cx="199.37" cy="55.98" r="13.69"/><circle class="cls-5" cx="484.3" cy="169.84" r="33.14"/></g></svg>
